C:\Users\israe\Dropbox\PhDWork\ExperimentalData\subject9\145\P9S145W07_filtered35.mot
nRows=16
nColumns=28

name C:\Users\israe\Dropbox\PhDWork\ExperimentalData\subject9\145\P9S145W07_filtered35.mot
datacolumns 28
datarows 16
range 0.5570000000 0.5720000000
endheader
time	ground_force_1_vx	ground_force_1_vy	ground_force_1_vz	ground_force_1_px	ground_force_1_py	ground_force_1_pz	ground_moment_1_mx	ground_moment_1_my	ground_moment_1_mz	ground_force_2_vx	ground_force_2_vy	ground_force_2_vz	ground_force_2_px	ground_force_2_py	ground_force_2_pz	ground_moment_2_mx	ground_moment_2_my	ground_moment_2_mz	ground_force_3_vx	ground_force_3_vy	ground_force_3_vz	ground_force_3_px	ground_force_3_py	ground_force_3_pz	ground_moment_3_mx	ground_moment_3_my	ground_moment_3_mz
        0.5570000000	      -16.7289865047	      615.4516172923	       35.8060885928	        0.1988394961	        0.0000558755	       -0.3004071324	      -28.5329370164	       -9.4709399803	       40.9876576762	        0.0000001700	        0.0000000000	        0.0000005660	        0.2029003516	       -0.0000795827	        0.4543649445	       -0.0000000966	       -0.0000000142	        0.0000000460	       -0.0000000000	        0.0000000000	        0.0000000000	        0.2076431971	        0.0000770316	        1.3583900146	       -0.0000000000	        0.0000000000	       -0.0000000000	
        0.5580000000	      -17.0348718623	      620.6796524827	       36.5894697430	        0.1988394961	        0.0000558755	       -0.3004071324	      -28.8683712988	       -9.5843479905	       41.3569766048	        0.0000002309	        0.0000000000	        0.0000008417	        0.2029003516	       -0.0000795827	        0.4543649445	       -0.0000001486	       -0.0000000144	        0.0000000702	       -0.0000000000	        0.0000000000	        0.0000000000	        0.2076431971	        0.0000770316	        1.3583900146	       -0.0000000000	        0.0000000000	       -0.0000000000	
        0.5590000000	      -17.3383304526	      625.9422175944	       37.3466343044	        0.1988394961	        0.0000558755	       -0.3004071324	      -29.2118476976	       -9.6971525843	       41.7311028183	        0.0000002994	        0.0000000000	        0.0000011700	        0.2029003516	       -0.0000795827	        0.4543649445	       -0.0000002116	       -0.0000000133	        0.0000000993	       -0.0000000000	        0.0000000000	        0.0000000000	        0.2076431971	        0.0000770316	        1.3583900146	       -0.0000000000	        0.0000000000	       -0.0000000000	
        0.5600000000	      -17.6386316544	      631.2418089463	       38.0789351459	        0.1988394961	        0.0000558755	       -0.3004071324	      -29.5628698689	       -9.8091212402	       42.1091397124	        0.0000003726	        0.0000000000	        0.0000015458	        0.2029003516	       -0.0000795827	        0.4543649445	       -0.0000002848	       -0.0000000105	        0.0000001329	       -0.0000000000	        0.0000000000	        0.0000000000	        0.2076431971	        0.0000770316	        1.3583900146	       -0.0000000000	        0.0000000000	       -0.0000000000	
        0.5610000000	      -17.9350846134	      636.5746472469	       38.7879509214	        0.1988394961	        0.0000558755	       -0.3004071324	      -29.9208550391	       -9.9199512755	       42.4897323111	        0.0000004461	        0.0000000000	        0.0000019568	        0.2029003516	       -0.0000795827	        0.4543649445	       -0.0000003664	       -0.0000000054	        0.0000001703	       -0.0000000000	        0.0000000000	        0.0000000000	        0.2076431971	        0.0000770316	        1.3583900146	       -0.0000000000	        0.0000000000	       -0.0000000000	
        0.5620000000	      -18.2265124531	      641.9323648647	       39.4749013697	        0.1988394961	        0.0000558755	       -0.3004071324	      -30.2850160642	      -10.0295107724	       42.8713148961	        0.0000005132	        0.0000000000	        0.0000023816	        0.2029003516	       -0.0000795827	        0.4543649445	       -0.0000004529	        0.0000000026	        0.0000002096	       -0.0000000000	        0.0000000000	        0.0000000000	        0.2076431971	        0.0000770316	        1.3583900146	       -0.0000000000	       -0.0000000000	       -0.0000000000	
        0.5630000000	      -18.5106848121	      647.3065829408	       40.1409036275	        0.1988394961	        0.0000558755	       -0.3004071324	      -30.6543951120	      -10.1378302573	       43.2523073795	        0.0000005647	        0.0000000000	        0.0000027877	        0.2029003516	       -0.0000795827	        0.4543649445	       -0.0000005384	        0.0000000142	        0.0000002482	       -0.0000000000	        0.0000000000	        0.0000000000	        0.2076431971	        0.0000770316	        1.3583900146	       -0.0000000000	       -0.0000000000	       -0.0000000000	
        0.5640000000	      -18.7842902539	      652.6907867540	       40.7872635542	        0.1988394961	        0.0000558755	       -0.3004071324	      -31.0279264649	      -10.2449399741	       43.6311921832	        0.0000005884	        0.0000000000	        0.0000031285	        0.2029003516	       -0.0000795827	        0.4543649445	       -0.0000006146	        0.0000000299	        0.0000002821	       -0.0000000000	        0.0000000000	        0.0000000000	        0.2076431971	        0.0000770316	        1.3583900146	       -0.0000000000	       -0.0000000000	       -0.0000000000	
        0.5650000000	      -19.0437460278	      658.0776242785	       41.4158930424	        0.1988394961	        0.0000558755	       -0.3004071324	      -31.4045171334	      -10.3507883185	       44.0065946153	        0.0000005690	        0.0000000000	        0.0000033418	        0.2029003516	       -0.0000795827	        0.4543649445	       -0.0000006702	        0.0000000504	        0.0000003060	       -0.0000000000	        0.0000000000	        0.0000000000	        0.2076431971	        0.0000770316	        1.3583900146	        0.0000000000	       -0.0000000000	        0.0000000000	
        0.5660000000	      -19.2860681465	      663.4567888685	       42.0302243430	        0.1988394961	        0.0000558755	       -0.3004071324	      -31.7831825134	      -10.4553154505	       44.3774642409	        0.0000004878	        0.0000000000	        0.0000033474	        0.2029003516	       -0.0000795827	        0.4543649445	       -0.0000006903	        0.0000000758	        0.0000003130	       -0.0000000000	        0.0000000000	        0.0000000000	        0.2076431971	        0.0000770316	        1.3583900146	        0.0000000000	       -0.0000000000	        0.0000000000	
        0.5670000000	      -19.5090950764	      668.8163481203	       42.6357042725	        0.1988394961	        0.0000558755	       -0.3004071324	      -32.1631648470	      -10.5586015089	       44.7431106935	        0.0000003232	        0.0000000000	        0.0000030465	        0.2029003516	       -0.0000795827	        0.4543649445	       -0.0000006561	        0.0000001063	        0.0000002944	       -0.0000000000	        0.0000000000	        0.0000000000	        0.2076431971	        0.0000770316	        1.3583900146	        0.0000000000	       -0.0000000000	        0.0000000000	
        0.5680000000	      -19.7112433717	      674.1451448930	       43.2390458599	        0.1988394961	        0.0000558755	       -0.3004071324	      -32.5440716462	      -10.6609212790	       45.1031253606	        0.0000000508	        0.0000000000	        0.0000023219	        0.2029003516	       -0.0000795827	        0.4543649445	       -0.0000005451	        0.0000001415	        0.0000002397	        0.0000000000	        0.0000000000	        0.0000000000	        0.2076431971	        0.0000770316	        1.3583900146	        0.0000000000	       -0.0000000000	        0.0000000000	
        0.5690000000	      -19.8908989614	      679.4345424976	       43.8469152584	        0.1988394961	        0.0000558755	       -0.3004071324	      -32.9259739037	      -10.7626508339	       45.4572942409	       -0.0000003552	        0.0000000000	        0.0000010398	        0.2029003516	       -0.0000795827	        0.4543649445	       -0.0000003312	        0.0000001802	        0.0000001371	        0.0000000000	        0.0000000000	        0.0000000000	        0.2076431971	        0.0000770316	        1.3583900146	        0.0000000000	       -0.0000000000	        0.0000000000	
        0.5700000000	      -20.0458001255	      684.6785505368	       44.4647914273	        0.1988394961	        0.0000558755	       -0.3004071324	      -33.3093076790	      -10.8641457764	       45.8053516637	       -0.0000009207	        0.0000005356	       -0.0000009454	        0.2029003516	       -0.0000795827	        0.4543649445	        0.0000000146	        0.0000002206	       -0.0000000268	        0.0000000000	        0.0000000000	        0.0000000000	        0.2076431971	        0.0000770316	        1.3583900146	        0.0000000000	       -0.0000000000	        0.0000000000	
        0.5710000000	      -20.1733117266	      689.8725084457	       45.0963853356	        0.1988394961	        0.0000558755	       -0.3004071324	      -33.6946412969	      -10.9657169841	       46.1468053776	       -0.0000016689	        0.0000036623	       -0.0000037831	        0.2029003516	       -0.0000795827	        0.4543649445	        0.0000005226	        0.0000002597	       -0.0000002658	        0.0000000000	        0.0000000000	        0.0000000000	        0.2076431971	        0.0000770316	        1.3583900146	        0.0000000000	       -0.0000000000	        0.0000000000	
        0.5720000000	      -20.2715715801	      695.0130506283	       45.7438446802	        0.1988394961	        0.0000558755	       -0.3004071324	      -34.0823687128	      -11.0676547937	       46.4810762261	       -0.0000026172	        0.0000079312	       -0.0000076151	        0.2029003516	       -0.0000795827	        0.4543649445	        0.0000012230	        0.0000002934	       -0.0000005934	        0.0000000000	        0.0000000000	       -0.0000000000	        0.2076431971	        0.0000770316	        1.3583900146	        0.0000000000	       -0.0000000000	        0.0000000000	
